<?xml version="1.0" encoding="UTF-8"?>
<svg id="Laag_1" data-name="Laag 1" xmlns="http://www.w3.org/2000/svg" viewBox="0 0 64 64">
  <defs>
    <style>
      .cls-1 {
        fill: #354e81;
      }
    </style>
  </defs>
  <polygon class="cls-1" points="48.67 18.46 48.67 12.21 15.33 12.21 15.33 37.21 23.67 37.21 23.67 20.54 27.83 20.54 27.83 37.21 36.17 37.21 36.17 20.54 40.33 20.54 40.33 41.38 34.08 41.38 34.08 49.71 29.92 49.71 29.92 41.38 21.58 41.38 21.58 43.46 27.83 43.46 27.83 51.79 36.17 51.79 36.17 43.46 42.42 43.46 42.42 18.46 34.08 18.46 34.08 35.13 29.92 35.13 29.92 18.46 21.58 18.46 21.58 35.13 17.42 35.13 17.42 14.29 46.58 14.29 46.58 18.46 48.67 18.46"/>
</svg>